# File created by Blade
# Date/Time:  Tue Sep 23 19:06:47 2014
# Frame Rate: 120.000 fps
#------------------------------------------------------
:FULLY-SPECIFIED
:DEGREES
975
root 0.756083 32.400810 -0.032977 38.890708 -3.295621 0.210294
Spine -24.501803 -3.191410 3.305985
Head 13.912734 -4.901871 -5.795914
LeftShoulder -19.183955 47.902240 15.419547
LeftArm 57.744409 -3.429170 -64.507199
LeftForeArm 99.386904 -0.000000 7.943317
LeftHand -13.264811 -0.000000 60.879281
LeftHandThumb1 -26.253704 0.000000 33.147579
RightShoulder -17.069005 -49.428616 -13.031356
RightArm 52.887928 8.744794 75.211951
RightForeArm 12.637101 -0.000000 20.705309
RightHand 13.754102 -0.000000 -16.020964
RightHandThumb1 -24.326973 -0.000000 -32.862282
LeftUpLeg -41.922388 2.745158 0.325260
LeftLeg 10.464921 -0.000000 -0.000000
LeftFoot -6.672378 6.200250 1.024002
LeftToeBase -0.287040 -0.000000 0.000000
RightUpLeg -42.656893 -3.575358 0.959223
RightLeg 14.042559 -0.000000 -0.000000
RightFoot -11.209997 -5.767177 0.065323
RightToeBase 6.565595 -0.000000 -0.000000
976
root 0.677158 32.404689 -0.008152 38.775540 -3.491025 0.289268
Spine -24.762257 -2.994694 3.161455
Head 13.028931 -4.552491 -6.055140
LeftShoulder -19.479803 47.951226 15.110358
LeftArm 57.870967 -4.061693 -63.628777
LeftForeArm 98.953555 0.000000 6.487883
LeftHand -13.077278 -0.000000 60.921716
LeftHandThumb1 -26.253704 0.000000 33.147579
RightShoulder -17.035553 -49.183795 -13.279345
RightArm 53.117431 8.982265 74.577520
RightForeArm 12.453902 -0.000000 19.704441
RightHand 14.123094 -0.000000 -16.074960
RightHandThumb1 -24.326973 -0.000000 -32.862282
LeftUpLeg -41.620390 3.143742 0.142684
LeftLeg 10.246464 -0.000000 -0.000000
LeftFoot -6.869606 5.778669 0.403100
LeftToeBase 0.304286 -0.000000 -0.000000
RightUpLeg -42.219417 -3.545466 0.997593
RightLeg 13.406991 -0.000000 -0.000000
RightFoot -11.054716 -5.757146 -0.193888
RightToeBase 6.654295 -0.000000 -0.000000
977
root 0.603184 32.414609 0.017692 38.668809 -3.710440 0.356896
Spine -25.022462 -2.752129 2.996865
Head 12.215827 -4.232414 -6.248192
LeftShoulder -19.610508 47.883897 14.979630
LeftArm 57.816442 -4.723639 -62.959777
LeftForeArm 99.321671 -0.000000 4.932208
LeftHand -13.786527 0.000000 61.354253
LeftHandThumb1 -26.253704 0.000000 33.147579
RightShoulder -17.009417 -48.839644 -13.561404
RightArm 53.101882 9.090118 73.662966
RightForeArm 12.567316 -0.000000 18.849521
RightHand 14.526315 0.000000 -15.738623
RightHandThumb1 -24.326973 -0.000000 -32.862282
LeftUpLeg -41.240866 3.373900 0.087263
LeftLeg 9.876606 -0.000000 -0.000000
LeftFoot -6.846688 5.593873 -0.084151
LeftToeBase 0.449901 -0.000000 -0.000000
RightUpLeg -41.844092 -3.586874 1.073545
RightLeg 12.881626 -0.000000 -0.000000
RightFoot -10.895631 -5.526632 -0.325458
RightToeBase 6.686939 -0.000000 -0.000000
978
root 0.525828 32.429378 0.044772 38.552034 -3.880134 0.401505
Spine -25.270691 -2.548704 2.873573
Head 11.442676 -3.934037 -6.385836
LeftShoulder -19.801753 47.887960 14.808129
LeftArm 57.797757 -5.533694 -62.447836
LeftForeArm 99.620645 -0.000000 3.469370
LeftHand -14.174540 0.000000 61.653523
LeftHandThumb1 -26.253704 0.000000 33.147579
RightShoulder -17.033512 -48.596505 -13.771387
RightArm 53.167041 9.227768 72.716930
RightForeArm 12.814295 -0.000000 18.114255
RightHand 14.660142 -0.000000 -15.848622
RightHandThumb1 -24.326973 -0.000000 -32.862282
LeftUpLeg -40.847748 3.592667 0.080909
LeftLeg 9.506005 -0.000000 -0.000000
LeftFoot -6.866920 5.440988 -0.697805
LeftToeBase 0.790025 -0.000000 -0.000000
RightUpLeg -41.459172 -3.755427 1.259356
RightLeg 12.379299 -0.000000 -0.000000
RightFoot -10.724283 -5.072125 -0.385487
RightToeBase 6.765951 -0.000000 -0.000000
979
root 0.453319 32.443299 0.079636 38.353905 -4.092674 0.420111
Spine -25.451864 -2.349271 2.766019
Head 10.731454 -3.596032 -6.533290
LeftShoulder -19.889764 47.858945 14.820256
LeftArm 57.471690 -6.531649 -62.459705
LeftForeArm 98.328897 0.000000 2.558586
LeftHand -12.766733 -0.000000 61.258423
LeftHandThumb1 -26.253704 0.000000 33.147579
RightShoulder -16.914983 -48.364063 -14.087072
RightArm 53.173015 9.573877 71.993025
RightForeArm 12.656401 0.000000 17.484418
RightHand 14.895252 0.000000 -15.640177
RightHandThumb1 -24.326973 -0.000000 -32.862282
LeftUpLeg -40.355552 3.894168 0.046054
LeftLeg 9.158045 -0.000000 -0.000000
LeftFoot -7.063164 5.203409 -1.505364
LeftToeBase 1.398020 -0.000000 -0.000000
RightUpLeg -41.026459 -4.000031 1.499358
RightLeg 11.965579 -0.000000 -0.000000
RightFoot -10.573650 -4.475882 -0.481383
RightToeBase 6.821661 -0.000000 -0.000000
980
root 0.382975 32.459762 0.117730 38.219291 -4.317776 0.464372
Spine -25.721649 -2.192952 2.661072
Head 10.086096 -3.243182 -6.700382
LeftShoulder -20.000630 47.845728 14.798156
LeftArm 57.074863 -7.586471 -62.453478
LeftForeArm 97.611447 0.000000 1.667722
LeftHand -11.965846 -0.000000 60.939601
LeftHandThumb1 -26.253704 0.000000 33.147579
RightShoulder -16.731480 -48.149786 -14.539058
RightArm 53.240430 9.959109 71.420912
RightForeArm 12.429796 -0.000000 16.768704
RightHand 15.047810 -0.000000 -15.376987
RightHandThumb1 -24.326973 -0.000000 -32.862282
LeftUpLeg -39.911388 4.148575 0.014879
LeftLeg 8.799104 -0.000000 -0.000000
LeftFoot -7.377153 4.965087 -2.677354
LeftToeBase 2.033635 -0.000000 -0.000000
RightUpLeg -40.644009 -4.267517 1.716209
RightLeg 11.526848 -0.000000 -0.000000
RightFoot -10.417825 -3.834313 -0.474163
RightToeBase 6.863819 -0.000000 -0.000000
981
root 0.315351 32.476751 0.156793 38.071508 -4.555554 0.504061
Spine -25.973903 -2.026013 2.524698
Head 9.475902 -2.896112 -6.755433
LeftShoulder -20.123439 47.799154 14.839891
LeftArm 56.737945 -8.708194 -62.563966
LeftForeArm 97.194336 0.000000 0.707291
LeftHand -11.291132 -0.000000 60.707223
LeftHandThumb1 -26.253704 0.000000 33.147579
RightShoulder -16.593209 -47.988325 -14.882706
RightArm 53.185340 10.297781 70.569377
RightForeArm 12.373413 0.000000 16.325447
RightHand 15.107475 -0.000000 -15.252024
RightHandThumb1 -24.326973 -0.000000 -32.862282
LeftUpLeg -39.487702 4.442027 -0.047268
LeftLeg 8.516526 -0.000000 -0.000000
LeftFoot -7.510618 4.780759 -3.338263
LeftToeBase 2.024950 -0.000000 -0.000000
RightUpLeg -40.259895 -4.492554 1.903844
RightLeg 11.111890 -0.000000 -0.000000
RightFoot -10.228730 -3.259405 -0.608940
RightToeBase 6.850896 -0.000000 -0.000000
982
root 0.248295 32.494714 0.195969 37.986044 -4.732165 0.556036
Spine -26.302650 -1.941611 2.441131
Head 8.897961 -2.572060 -6.806060
LeftShoulder -20.318563 47.800499 14.813185
LeftArm 56.412576 -9.882493 -62.653178
LeftForeArm 96.484931 0.000000 -0.166468
LeftHand -10.464702 0.000000 60.276286
LeftHandThumb1 -26.253704 0.000000 33.147579
RightShoulder -16.458745 -47.857567 -15.280097
RightArm 53.234978 10.654349 69.785141
RightForeArm 12.329565 0.000000 15.759896
RightHand 15.256138 -0.000000 -15.187800
RightHandThumb1 -24.326973 -0.000000 -32.862282
LeftUpLeg -39.168200 4.672140 -0.080811
LeftLeg 8.329560 -0.000000 -0.000000
LeftFoot -7.870423 4.559282 -4.140653
LeftToeBase 2.172023 -0.000000 -0.000000
RightUpLeg -39.909137 -4.712969 2.085824
RightLeg 10.651515 -0.000000 -0.000000
RightFoot -10.026632 -2.787816 -0.694192
RightToeBase 6.771854 -0.000000 -0.000000
983
root 0.184428 32.513513 0.237742 37.885009 -4.889151 0.638557
Spine -26.621752 -1.905742 2.338207
Head 8.377304 -2.263947 -6.832896
LeftShoulder -20.488306 47.728905 14.818454
LeftArm 56.051021 -11.125087 -62.776422
LeftForeArm 96.009878 -0.000000 -1.071436
LeftHand -9.777536 -0.000000 60.051462
LeftHandThumb1 -26.253704 0.000000 33.147579
RightShoulder -16.233256 -47.605589 -15.702898
RightArm 53.134520 11.121271 69.073448
RightForeArm 12.237500 -0.000000 15.241022
RightHand 15.448976 0.000000 -15.424583
RightHandThumb1 -24.326973 -0.000000 -32.862282
LeftUpLeg -38.848472 4.791168 -0.081776
LeftLeg 8.201128 -0.000000 -0.000000
LeftFoot -8.264910 4.282894 -4.859231
LeftToeBase 1.786961 -0.000000 -0.000000
RightUpLeg -39.548187 -4.890534 2.197206
RightLeg 10.220079 -0.000000 -0.000000
RightFoot -9.857457 -2.392933 -0.723881
RightToeBase 6.755550 -0.000000 -0.000000
984
root 0.121565 32.533046 0.278792 37.773025 -5.007332 0.733894
Spine -26.929749 -1.904346 2.219002
Head 7.913751 -1.989202 -6.756195
LeftShoulder -20.599011 47.590627 14.918031
LeftArm 55.721868 -12.429251 -62.978693
LeftForeArm 95.947062 -0.000000 -2.106229
LeftHand -9.426001 -0.000000 60.008036
LeftHandThumb1 -26.253704 0.000000 33.147579
RightShoulder -16.135042 -47.388664 -16.009878
RightArm 53.007438 11.393221 67.929313
RightForeArm 12.362765 0.000000 14.650285
RightHand 15.987769 -0.000000 -15.434031
RightHandThumb1 -24.326973 -0.000000 -32.862282
LeftUpLeg -38.566307 4.768280 -0.005469
LeftLeg 8.231700 -0.000000 -0.000000
LeftFoot -8.798013 4.004441 -5.410226
LeftToeBase 0.886318 -0.000000 -0.000000
RightUpLeg -39.145415 -4.956057 2.221087
RightLeg 9.742068 -0.000000 -0.000000
RightFoot -9.691243 -2.195372 -0.721195
RightToeBase 6.830905 -0.000000 -0.000000
